<?xml version="1.0" standalone="no"?>
<!DOCTYPE svg PUBLIC "-//W3C//DTD SVG 20010904//EN"
 "http://www.w3.org/TR/2001/REC-SVG-20010904/DTD/svg10.dtd">
<svg version="1.0" xmlns="http://www.w3.org/2000/svg"
 width="76.000000pt" height="76.000000pt" viewBox="0 0 76.000000 76.000000"
 preserveAspectRatio="xMidYMid meet">
<metadata>
Created by potrace 1.14, written by Peter Selinger 2001-2017
</metadata>
<g transform="translate(0.000000,76.000000) scale(0.100000,-0.100000)"
fill="#000000" stroke="none">
<path d="M397 739 c-56 -43 -57 -50 -57 -397 l0 -319 66 -2 67 -2 -7 78 c-4
43 -14 112 -23 153 -8 41 -18 89 -21 105 -4 17 -7 63 -7 102 0 61 4 76 21 94
28 28 61 18 79 -24 7 -18 11 -35 9 -38 -5 -8 -15 -91 -18 -149 -1 -24 1 -66 6
-94 5 -28 9 -90 9 -137 l1 -87 39 0 40 -1 -3 334 -3 335 -32 31 c-26 27 -41
33 -85 36 -42 3 -59 -1 -81 -18z m101 -108 c7 -20 7 -32 -1 -40 -28 -28 -61 6
-46 47 12 31 35 28 47 -7z"/>
<path d="M55 720 c-3 -5 -6 -144 -6 -310 0 -332 3 -345 63 -376 41 -21 100
-20 138 2 58 35 61 51 58 386 l-3 303 -37 2 -38 1 0 -299 c0 -288 -1 -300 -21
-320 -21 -21 -56 -19 -71 5 -4 6 -8 144 -8 307 0 261 -2 298 -16 303 -23 9
-52 7 -59 -4z"/>
<path d="M627 716 c-1 -6 -3 -164 -3 -351 l1 -340 37 -6 c23 -3 39 -2 41 5 2
6 4 166 3 356 l-1 345 -37 1 c-20 1 -39 -4 -41 -10z"/>
</g>
</svg>
